<svg width="20" height="20" viewBox="0 0 20 20" fill="none" xmlns="http://www.w3.org/2000/svg">
<path d="M11.0498 2.75022C11.1803 2.65692 11.3329 2.59947 11.4925 2.5836C11.652 2.56773 11.813 2.594 11.9592 2.65979C12.1055 2.72557 12.2319 2.82857 12.3259 2.9585C12.4199 3.08842 12.4781 3.24074 12.4948 3.40022L12.4998 3.49522V16.5052C12.4999 16.6656 12.4579 16.8232 12.378 16.9622C12.2981 17.1013 12.1831 17.2169 12.0445 17.2976C11.906 17.3783 11.7486 17.4213 11.5883 17.4222C11.4279 17.4231 11.2701 17.3819 11.1307 17.3027L11.0507 17.2511L5.5665 13.3336H3.33317C2.91269 13.3337 2.5077 13.1749 2.19938 12.889C1.89106 12.6031 1.70221 12.2112 1.67067 11.7919L1.6665 11.6669V8.33355C1.66637 7.91307 1.82518 7.50808 2.11108 7.19976C2.39699 6.89145 2.78887 6.70259 3.20817 6.67105L3.33317 6.66689H5.5665L11.0498 2.75022ZM14.7223 7.51605C15.0717 7.82861 15.3512 8.21133 15.5426 8.63924C15.734 9.06715 15.833 9.53062 15.8332 9.99939C15.8333 10.4684 15.7344 10.9322 15.543 11.3604C15.3515 11.7887 15.0719 12.1716 14.7223 12.4844C14.5643 12.6247 14.3588 12.6998 14.1476 12.6944C13.9363 12.6889 13.7349 12.6034 13.5843 12.4551C13.4337 12.3069 13.3451 12.1069 13.3363 11.8957C13.3276 11.6845 13.3995 11.4779 13.5373 11.3177L13.6107 11.2427C13.9523 10.9361 14.1665 10.4936 14.1665 10.0002C14.1666 9.57364 14.0032 9.16325 13.7098 8.85355L13.6107 8.75772C13.528 8.68506 13.4605 8.59672 13.4121 8.49783C13.3638 8.39894 13.3355 8.29144 13.3289 8.18155C13.3223 8.07167 13.3376 7.96156 13.3738 7.8576C13.41 7.75365 13.4665 7.65789 13.5399 7.57588C13.6133 7.49386 13.7023 7.4272 13.8016 7.37976C13.9009 7.33232 14.0087 7.30503 14.1186 7.29946C14.2286 7.2939 14.3385 7.31018 14.4422 7.34735C14.5458 7.38453 14.641 7.44187 14.7223 7.51605Z" fill="#F8F8FF"/>
</svg>
