<svg width="20" height="20" viewBox="0 0 20 20" fill="none" xmlns="http://www.w3.org/2000/svg">
<path d="M11.0498 2.75022C11.1803 2.65692 11.3329 2.59947 11.4925 2.5836C11.652 2.56773 11.813 2.594 11.9592 2.65979C12.1055 2.72557 12.2319 2.82857 12.3259 2.9585C12.4199 3.08842 12.4781 3.24074 12.4948 3.40022L12.4998 3.49522V16.5052C12.4999 16.6656 12.4579 16.8232 12.378 16.9622C12.2981 17.1013 12.1831 17.2169 12.0445 17.2976C11.906 17.3783 11.7486 17.4213 11.5883 17.4222C11.4279 17.4231 11.2701 17.3819 11.1307 17.3027L11.0507 17.2511L5.5665 13.3336H3.33317C2.91269 13.3337 2.5077 13.1749 2.19938 12.889C1.89106 12.6031 1.70221 12.2112 1.67067 11.7919L1.6665 11.6669V8.33355C1.66637 7.91307 1.82518 7.50808 2.11108 7.19976C2.39699 6.89145 2.78887 6.70259 3.20817 6.67105L3.33317 6.66689H5.5665L11.0498 2.75022ZM16.389 5.65272C17.0006 6.19985 17.4899 6.86988 17.825 7.61903C18.16 8.36818 18.3331 9.17958 18.3332 10.0002C18.3331 10.8209 18.16 11.6323 17.825 12.3814C17.4899 13.1306 17.0006 13.8006 16.389 14.3477C16.3077 14.4219 16.2124 14.4792 16.1088 14.5164C16.0052 14.5536 15.8953 14.5699 15.7853 14.5643C15.6754 14.5587 15.5676 14.5315 15.4683 14.484C15.3689 14.4366 15.28 14.3699 15.2066 14.2879C15.1331 14.2059 15.0767 14.1101 15.0405 14.0062C15.0042 13.9022 14.989 13.7921 14.9956 13.6822C15.0022 13.5723 15.0304 13.4648 15.0788 13.3659C15.1272 13.2671 15.1946 13.1787 15.2773 13.1061C15.7144 12.7152 16.064 12.2366 16.3034 11.7014C16.5428 11.1662 16.6665 10.5865 16.6665 10.0002C16.6665 8.76689 16.1315 7.65855 15.2773 6.89439C15.1946 6.82172 15.1272 6.73339 15.0788 6.6345C15.0304 6.53561 15.0022 6.42811 14.9956 6.31822C14.989 6.20833 15.0042 6.09823 15.0405 5.99427C15.0767 5.89031 15.1331 5.79456 15.2066 5.71254C15.28 5.63053 15.3689 5.56387 15.4683 5.51643C15.5676 5.46898 15.6754 5.44169 15.7853 5.43613C15.8953 5.43057 16.0052 5.44685 16.1088 5.48402C16.2124 5.5212 16.3077 5.57853 16.389 5.65272ZM14.7223 7.51605C15.0717 7.82861 15.3512 8.21133 15.5426 8.63924C15.734 9.06715 15.833 9.53062 15.8332 9.99939C15.8333 10.4684 15.7344 10.9322 15.543 11.3604C15.3515 11.7887 15.0719 12.1716 14.7223 12.4844C14.5643 12.6247 14.3588 12.6998 14.1476 12.6944C13.9363 12.6889 13.7349 12.6034 13.5843 12.4551C13.4337 12.3069 13.3451 12.1069 13.3363 11.8957C13.3276 11.6845 13.3995 11.4779 13.5373 11.3177L13.6107 11.2427C13.9523 10.9361 14.1665 10.4936 14.1665 10.0002C14.1666 9.57364 14.0032 9.16325 13.7098 8.85355L13.6107 8.75772C13.528 8.68506 13.4605 8.59672 13.4121 8.49783C13.3638 8.39894 13.3355 8.29144 13.3289 8.18155C13.3223 8.07167 13.3376 7.96156 13.3738 7.8576C13.41 7.75365 13.4665 7.65789 13.5399 7.57588C13.6133 7.49386 13.7023 7.4272 13.8016 7.37976C13.9009 7.33232 14.0087 7.30503 14.1186 7.29946C14.2286 7.2939 14.3385 7.31018 14.4422 7.34735C14.5458 7.38453 14.641 7.44187 14.7223 7.51605Z" fill="#F8F8FF"/>
</svg>
