<svg width="20" height="20" viewBox="0 0 20 20" fill="none" xmlns="http://www.w3.org/2000/svg">
<path d="M3.82984 6.6665L12.4998 15.3365V16.5048C12.4999 16.6733 12.4535 16.8386 12.3658 16.9825C12.278 17.1263 12.1523 17.2432 12.0025 17.3203C11.8526 17.3974 11.6844 17.4316 11.5164 17.4194C11.3483 17.4071 11.1869 17.3487 11.0498 17.2507L5.5665 13.3332H3.33317C2.89114 13.3332 2.46722 13.1576 2.15466 12.845C1.8421 12.5324 1.6665 12.1085 1.6665 11.6665V8.33317C1.6665 7.89114 1.8421 7.46722 2.15466 7.15466C2.46722 6.84209 2.89114 6.6665 3.33317 6.6665H3.82984ZM12.4998 3.49483V11.3215L13.4273 12.249C13.3498 12.1005 13.3189 11.9321 13.3385 11.7658C13.3581 11.5994 13.4274 11.4429 13.5373 11.3165L13.6107 11.2423C13.9523 10.9357 14.1665 10.4932 14.1665 9.99983C14.1666 9.57325 14.0032 9.16286 13.7098 8.85317L13.6107 8.75733C13.4484 8.60929 13.3511 8.40315 13.34 8.18376C13.3289 7.96436 13.4049 7.74946 13.5514 7.5858C13.6979 7.42213 13.9032 7.32294 14.1224 7.30981C14.3417 7.29668 14.5573 7.37066 14.7223 7.51567C15.0718 7.82831 15.3514 8.21117 15.5428 8.63923C15.7342 9.06729 15.8332 9.53092 15.8332 9.99983C15.8332 10.4687 15.7342 10.9324 15.5428 11.3604C15.3514 11.7885 15.0718 12.1714 14.7223 12.484C14.5961 12.5972 14.4383 12.6692 14.27 12.6903C14.1017 12.7115 13.931 12.6808 13.7807 12.6023L15.0057 13.8273C14.9895 13.6941 15.0057 13.5588 15.053 13.4332C15.1003 13.3075 15.1773 13.1952 15.2773 13.1057C15.7144 12.7148 16.064 12.2362 16.3034 11.701C16.5428 11.1658 16.6665 10.5861 16.6665 9.99983C16.6665 8.7665 16.1315 7.65817 15.2773 6.894C15.1946 6.82133 15.1272 6.733 15.0788 6.63411C15.0304 6.53522 15.0022 6.42772 14.9956 6.31783C14.989 6.20794 15.0042 6.09784 15.0405 5.99388C15.0767 5.88992 15.1331 5.79417 15.2066 5.71215C15.28 5.63014 15.3689 5.56348 15.4683 5.51604C15.5676 5.4686 15.6754 5.4413 15.7853 5.43574C15.8953 5.43018 16.0052 5.44646 16.1088 5.48363C16.2124 5.52081 16.3077 5.57815 16.389 5.65233C17.0006 6.19947 17.4899 6.8695 17.825 7.61864C18.16 8.36779 18.3331 9.17919 18.3332 9.99983C18.3331 10.8205 18.16 11.6319 17.825 12.381C17.4899 13.1302 17.0006 13.8002 16.389 14.3473C16.3006 14.4266 16.1963 14.486 16.083 14.5216C15.9698 14.5573 15.8502 14.5683 15.7323 14.554L17.0707 15.8923C17.2225 16.0495 17.3065 16.26 17.3046 16.4785C17.3027 16.697 17.215 16.906 17.0605 17.0605C16.906 17.215 16.697 17.3027 16.4785 17.3046C16.26 17.3065 16.0495 17.2225 15.8923 17.0707L2.929 4.10817C2.84941 4.03129 2.78593 3.93934 2.74225 3.83767C2.69858 3.736 2.67559 3.62665 2.67463 3.516C2.67367 3.40535 2.69475 3.29562 2.73665 3.1932C2.77855 3.09079 2.84043 2.99775 2.91867 2.9195C2.99692 2.84126 3.08996 2.77938 3.19238 2.73748C3.29479 2.69558 3.40452 2.6745 3.51517 2.67546C3.62582 2.67642 3.73517 2.69941 3.83684 2.74308C3.93851 2.78676 4.03046 2.85024 4.10734 2.92983L6.89567 5.7165L11.0507 2.74817C11.1878 2.65032 11.3492 2.59214 11.5172 2.58001C11.6852 2.56789 11.8533 2.60229 12.003 2.67944C12.1528 2.75659 12.2783 2.8735 12.366 3.01734C12.4536 3.16118 12.4999 3.32639 12.4998 3.49483Z" fill="#F8F8FF"/>
</svg>
