<svg width="20" height="20" viewBox="0 0 20 20" fill="none" xmlns="http://www.w3.org/2000/svg">
<path d="M16.25 3.75V16.25C16.2501 16.3737 16.2135 16.4946 16.1448 16.5975C16.0762 16.7004 15.9785 16.7805 15.8642 16.8279C15.75 16.8752 15.6242 16.8876 15.5029 16.8635C15.3816 16.8393 15.2702 16.7797 15.1828 16.6922L10 11.5086V16.25C10.0001 16.3737 9.9635 16.4946 9.89483 16.5975C9.82616 16.7004 9.72851 16.7805 9.61425 16.8279C9.49998 16.8752 9.37424 16.8876 9.25294 16.8635C9.13163 16.8393 9.02023 16.7797 8.93282 16.6922L2.68282 10.4422C2.62471 10.3841 2.57861 10.3152 2.54715 10.2393C2.5157 10.1635 2.49951 10.0821 2.49951 10C2.49951 9.91787 2.5157 9.83654 2.54715 9.76067C2.57861 9.68479 2.62471 9.61586 2.68282 9.55782L8.93282 3.30782C9.02023 3.22031 9.13163 3.1607 9.25294 3.13655C9.37424 3.11239 9.49998 3.12477 9.61425 3.17211C9.72851 3.21946 9.82616 3.29964 9.89483 3.40252C9.9635 3.50539 10.0001 3.62632 10 3.75V8.49141L15.1828 3.30782C15.2702 3.22031 15.3816 3.1607 15.5029 3.13655C15.6242 3.11239 15.75 3.12477 15.8642 3.17211C15.9785 3.21946 16.0762 3.29964 16.1448 3.40252C16.2135 3.50539 16.2501 3.62632 16.25 3.75Z" fill="#F8F8FF"/>
</svg>
