<svg width="20" height="20" viewBox="0 0 20 20" fill="none" xmlns="http://www.w3.org/2000/svg">
<path d="M17.3172 10.4422L11.0672 16.6922C10.9798 16.7797 10.8684 16.8393 10.7471 16.8635C10.6258 16.8876 10.5 16.8752 10.3858 16.8279C10.2715 16.7805 10.1738 16.7004 10.1052 16.5975C10.0365 16.4946 9.9999 16.3737 10 16.25V11.5086L4.81719 16.6922C4.72978 16.7797 4.61837 16.8393 4.49707 16.8635C4.37576 16.8876 4.25002 16.8752 4.13576 16.8279C4.02149 16.7805 3.92384 16.7004 3.85517 16.5975C3.78651 16.4946 3.7499 16.3737 3.75 16.25V3.75C3.7499 3.62632 3.78651 3.50539 3.85517 3.40252C3.92384 3.29964 4.02149 3.21946 4.13576 3.17211C4.25002 3.12477 4.37576 3.11239 4.49707 3.13655C4.61837 3.1607 4.72978 3.22031 4.81719 3.30782L10 8.49141V3.75C9.9999 3.62632 10.0365 3.50539 10.1052 3.40252C10.1738 3.29964 10.2715 3.21946 10.3858 3.17211C10.5 3.12477 10.6258 3.11239 10.7471 3.13655C10.8684 3.1607 10.9798 3.22031 11.0672 3.30782L17.3172 9.55782C17.3753 9.61586 17.4214 9.68479 17.4529 9.76067C17.4843 9.83654 17.5005 9.91787 17.5005 10C17.5005 10.0821 17.4843 10.1635 17.4529 10.2393C17.4214 10.3152 17.3753 10.3841 17.3172 10.4422Z" fill="#F8F8FF"/>
</svg>
