<svg width="20" height="20" viewBox="0 0 20 20" fill="none" xmlns="http://www.w3.org/2000/svg">
<path d="M7.31719 15.8078C7.4047 15.8952 7.4643 16.0066 7.48846 16.1279C7.51261 16.2492 7.50023 16.375 7.45289 16.4892C7.40554 16.6035 7.32536 16.7012 7.22249 16.7698C7.11962 16.8385 6.99869 16.8751 6.875 16.875H3.75C3.58424 16.875 3.42527 16.8092 3.30806 16.6919C3.19085 16.5747 3.125 16.4158 3.125 16.25V13.125C3.1249 13.0013 3.16151 12.8804 3.23017 12.7775C3.29884 12.6746 3.39649 12.5945 3.51076 12.5471C3.62502 12.4998 3.75076 12.4874 3.87207 12.5115C3.99337 12.5357 4.10478 12.5953 4.19219 12.6828L7.31719 15.8078ZM6.875 3.125H3.75C3.58424 3.125 3.42527 3.19085 3.30806 3.30806C3.19085 3.42527 3.125 3.58424 3.125 3.75V6.875C3.1249 6.99869 3.16151 7.11962 3.23017 7.22249C3.29884 7.32536 3.39649 7.40554 3.51076 7.45289C3.62502 7.50023 3.75076 7.51261 3.87207 7.48846C3.99337 7.4643 4.10478 7.4047 4.19219 7.31719L7.31719 4.19219C7.4047 4.10478 7.4643 3.99337 7.48846 3.87207C7.51261 3.75076 7.50023 3.62502 7.45289 3.51076C7.40554 3.39649 7.32536 3.29884 7.22249 3.23017C7.11962 3.16151 6.99869 3.1249 6.875 3.125ZM16.4891 12.5477C16.3749 12.5003 16.2492 12.4878 16.1279 12.5119C16.0067 12.536 15.8953 12.5954 15.8078 12.6828L12.6828 15.8078C12.5953 15.8952 12.5357 16.0066 12.5115 16.1279C12.4874 16.2492 12.4998 16.375 12.5471 16.4892C12.5945 16.6035 12.6746 16.7012 12.7775 16.7698C12.8804 16.8385 13.0013 16.8751 13.125 16.875H16.25C16.4158 16.875 16.5747 16.8092 16.6919 16.6919C16.8092 16.5747 16.875 16.4158 16.875 16.25V13.125C16.875 13.0014 16.8383 12.8806 16.7696 12.7778C16.7009 12.675 16.6033 12.5949 16.4891 12.5477ZM16.25 3.125H13.125C13.0013 3.1249 12.8804 3.16151 12.7775 3.23017C12.6746 3.29884 12.5945 3.39649 12.5471 3.51076C12.4998 3.62502 12.4874 3.75076 12.5115 3.87207C12.5357 3.99337 12.5953 4.10478 12.6828 4.19219L15.8078 7.31719C15.8952 7.4047 16.0066 7.4643 16.1279 7.48846C16.2492 7.51261 16.375 7.50023 16.4892 7.45289C16.6035 7.40554 16.7012 7.32536 16.7698 7.22249C16.8385 7.11962 16.8751 6.99869 16.875 6.875V3.75C16.875 3.58424 16.8092 3.42527 16.6919 3.30806C16.5747 3.19085 16.4158 3.125 16.25 3.125Z" fill="#F8F8FF"/>
</svg>
