<svg width="20" height="20" viewBox="0 0 20 20" fill="none" xmlns="http://www.w3.org/2000/svg">
<path d="M11.5625 7.5V3.75C11.5625 3.50136 11.6613 3.2629 11.8371 3.08709C12.0129 2.91127 12.2514 2.8125 12.5 2.8125C12.7486 2.8125 12.9871 2.91127 13.1629 3.08709C13.3387 3.2629 13.4375 3.50136 13.4375 3.75V6.5625H16.25C16.4986 6.5625 16.7371 6.66127 16.9129 6.83709C17.0887 7.0129 17.1875 7.25136 17.1875 7.5C17.1875 7.74864 17.0887 7.9871 16.9129 8.16291C16.7371 8.33873 16.4986 8.4375 16.25 8.4375H12.5C12.2514 8.4375 12.0129 8.33873 11.8371 8.16291C11.6613 7.9871 11.5625 7.74864 11.5625 7.5ZM7.5 11.5625H3.75C3.50136 11.5625 3.2629 11.6613 3.08709 11.8371C2.91127 12.0129 2.8125 12.2514 2.8125 12.5C2.8125 12.7486 2.91127 12.9871 3.08709 13.1629C3.2629 13.3387 3.50136 13.4375 3.75 13.4375H6.5625V16.25C6.5625 16.4986 6.66127 16.7371 6.83709 16.9129C7.0129 17.0887 7.25136 17.1875 7.5 17.1875C7.74864 17.1875 7.9871 17.0887 8.16291 16.9129C8.33873 16.7371 8.4375 16.4986 8.4375 16.25V12.5C8.4375 12.2514 8.33873 12.0129 8.16291 11.8371C7.9871 11.6613 7.74864 11.5625 7.5 11.5625ZM16.25 11.5625H12.5C12.2514 11.5625 12.0129 11.6613 11.8371 11.8371C11.6613 12.0129 11.5625 12.2514 11.5625 12.5V16.25C11.5625 16.4986 11.6613 16.7371 11.8371 16.9129C12.0129 17.0887 12.2514 17.1875 12.5 17.1875C12.7486 17.1875 12.9871 17.0887 13.1629 16.9129C13.3387 16.7371 13.4375 16.4986 13.4375 16.25V13.4375H16.25C16.4986 13.4375 16.7371 13.3387 16.9129 13.1629C17.0887 12.9871 17.1875 12.7486 17.1875 12.5C17.1875 12.2514 17.0887 12.0129 16.9129 11.8371C16.7371 11.6613 16.4986 11.5625 16.25 11.5625ZM7.5 2.8125C7.25136 2.8125 7.0129 2.91127 6.83709 3.08709C6.66127 3.2629 6.5625 3.50136 6.5625 3.75V6.5625H3.75C3.50136 6.5625 3.2629 6.66127 3.08709 6.83709C2.91127 7.0129 2.8125 7.25136 2.8125 7.5C2.8125 7.74864 2.91127 7.9871 3.08709 8.16291C3.2629 8.33873 3.50136 8.4375 3.75 8.4375H7.5C7.74864 8.4375 7.9871 8.33873 8.16291 8.16291C8.33873 7.9871 8.4375 7.74864 8.4375 7.5V3.75C8.4375 3.50136 8.33873 3.2629 8.16291 3.08709C7.9871 2.91127 7.74864 2.8125 7.5 2.8125Z" fill="#F8F8FF"/>
</svg>
