<svg width="24" height="24" viewBox="0 0 24 24" fill="none" xmlns="http://www.w3.org/2000/svg">
<path d="M2 16.2502C1.80109 16.2502 1.61032 16.3292 1.46967 16.4698C1.32902 16.6105 1.25 16.8012 1.25 17.0002C1.25 17.1991 1.32902 17.3898 1.46967 17.5305C1.61032 17.6711 1.80109 17.7502 2 17.7502V16.2502ZM22 7.00015L22.53 7.53015C22.6705 7.38953 22.7493 7.1989 22.7493 7.00015C22.7493 6.8014 22.6705 6.61078 22.53 6.47015L22 7.00015ZM19.47 8.47015C19.3375 8.61233 19.2654 8.80037 19.2688 8.99468C19.2723 9.18898 19.351 9.37436 19.4884 9.51178C19.6258 9.64919 19.8112 9.7279 20.0055 9.73133C20.1998 9.73476 20.3878 9.66263 20.53 9.53015L19.47 8.47015ZM20.53 4.47015C20.4613 4.39647 20.3785 4.33736 20.2865 4.29637C20.1945 4.25538 20.0952 4.23334 19.9945 4.23156C19.8938 4.22979 19.7938 4.24831 19.7004 4.28603C19.607 4.32375 19.5222 4.3799 19.451 4.45112C19.3797 4.52233 19.3236 4.60717 19.2859 4.70056C19.2482 4.79394 19.2296 4.89397 19.2314 4.99468C19.2332 5.09538 19.2552 5.19469 19.2962 5.28669C19.3372 5.37869 19.3963 5.46149 19.47 5.53015L20.53 4.47015ZM2 17.7502H5.603V16.2502H2V17.7502ZM11.39 14.4732L13.895 10.2992L12.609 9.52715L10.105 13.7012L11.39 14.4732ZM18.397 7.75015H22V6.25015H18.397V7.75015ZM21.47 6.47015L19.47 8.47015L20.53 9.53015L22.53 7.53015L21.47 6.47015ZM22.53 6.47015L20.53 4.47015L19.47 5.53015L21.47 7.53015L22.53 6.47015ZM13.895 10.2992C14.329 9.57515 14.629 9.07915 14.901 8.71015C15.164 8.35515 15.369 8.16715 15.59 8.04215L14.851 6.73715C14.384 7.00115 14.031 7.36415 13.696 7.81715C13.37 8.25715 13.028 8.82815 12.609 9.52715L13.895 10.2992ZM18.397 6.25015C17.582 6.25015 16.917 6.25015 16.372 6.30215C15.81 6.35715 15.318 6.47215 14.851 6.73715L15.59 8.04215C15.81 7.91715 16.077 7.83815 16.517 7.79515C16.973 7.75115 17.553 7.75015 18.397 7.75015V6.25015ZM5.603 17.7502C6.418 17.7502 7.083 17.7502 7.628 17.6982C8.19 17.6432 8.682 17.5282 9.149 17.2632L8.41 15.9582C8.19 16.0832 7.923 16.1622 7.483 16.2052C7.027 16.2492 6.447 16.2502 5.603 16.2502V17.7502ZM10.105 13.7012C9.67 14.4252 9.371 14.9212 9.099 15.2902C8.836 15.6452 8.631 15.8332 8.41 15.9582L9.149 17.2632C9.615 16.9992 9.969 16.6362 10.304 16.1832C10.63 15.7432 10.971 15.1722 11.39 14.4732L10.105 13.7012ZM2 6.25015C1.80109 6.25015 1.61032 6.32917 1.46967 6.46982C1.32902 6.61048 1.25 6.80124 1.25 7.00015C1.25 7.19907 1.32902 7.38983 1.46967 7.53048C1.61032 7.67114 1.80109 7.75015 2 7.75015V6.25015ZM22 17.0002L22.53 17.5302C22.6705 17.3895 22.7493 17.1989 22.7493 17.0002C22.7493 16.8014 22.6705 16.6108 22.53 16.4702L22 17.0002ZM20.53 14.4702C20.4613 14.3965 20.3785 14.3374 20.2865 14.2964C20.1945 14.2554 20.0952 14.2333 19.9945 14.2316C19.8938 14.2298 19.7938 14.2483 19.7004 14.286C19.607 14.3238 19.5222 14.3799 19.451 14.4511C19.3797 14.5223 19.3236 14.6072 19.2859 14.7006C19.2482 14.7939 19.2296 14.894 19.2314 14.9947C19.2332 15.0954 19.2552 15.1947 19.2962 15.2867C19.3372 15.3787 19.3963 15.4615 19.47 15.5302L20.53 14.4702ZM19.47 18.4702C19.3963 18.5388 19.3372 18.6216 19.2962 18.7136C19.2552 18.8056 19.2332 18.9049 19.2314 19.0056C19.2296 19.1063 19.2482 19.2064 19.2859 19.2998C19.3236 19.3931 19.3797 19.478 19.451 19.5492C19.5222 19.6204 19.607 19.6766 19.7004 19.7143C19.7938 19.752 19.8938 19.7705 19.9945 19.7687C20.0952 19.767 20.1945 19.7449 20.2865 19.7039C20.3785 19.6629 20.4613 19.6038 20.53 19.5302L19.47 18.4702ZM14.443 14.6152C14.3945 14.5267 14.3287 14.4488 14.2494 14.3864C14.1701 14.3239 14.0791 14.2781 13.9817 14.2517C13.8843 14.2253 13.7826 14.2187 13.6826 14.2325C13.5827 14.2463 13.4865 14.2802 13.4 14.332C13.3134 14.3839 13.2381 14.4526 13.1788 14.5342C13.1194 14.6158 13.0771 14.7086 13.0544 14.8069C13.0317 14.9052 13.0291 15.0071 13.0468 15.1065C13.0644 15.2058 13.1019 15.3006 13.157 15.3852L14.443 14.6152ZM9.557 9.38615C9.66039 9.55458 9.82607 9.67539 10.018 9.72233C10.21 9.76927 10.4128 9.73854 10.5822 9.63683C10.7516 9.53511 10.8741 9.37062 10.9229 9.17913C10.9718 8.98763 10.943 8.78459 10.843 8.61415L9.557 9.38615ZM2 7.75015H6.668V6.25015H2V7.75015ZM17.332 17.7502H22V16.2502H17.332V17.7502ZM22.53 16.4702L20.53 14.4702L19.47 15.5302L21.47 17.5302L22.53 16.4702ZM21.47 16.4702L19.47 18.4702L20.53 19.5302L22.53 17.5302L21.47 16.4702ZM17.332 16.2502C16.687 16.2502 16.465 16.2472 16.269 16.2092L15.982 17.6812C16.354 17.7532 16.747 17.7502 17.332 17.7502V16.2502ZM13.157 15.3852C13.457 15.8872 13.657 16.2262 13.911 16.5082L15.026 15.5052C14.892 15.3562 14.776 15.1682 14.443 14.6152L13.157 15.3852ZM16.269 16.2092C15.7892 16.1157 15.3529 15.8686 15.026 15.5052L13.911 16.5082C14.4556 17.1137 15.1826 17.5254 15.982 17.6812L16.269 16.2092ZM6.668 7.75015C7.313 7.75015 7.535 7.75315 7.731 7.79115L8.018 6.31915C7.646 6.24715 7.253 6.25015 6.668 6.25015V7.75015ZM10.843 8.61415C10.543 8.11215 10.343 7.77415 10.089 7.49215L8.974 8.49515C9.108 8.64415 9.224 8.83315 9.557 9.38615L10.843 8.61415ZM7.731 7.79115C8.211 7.88515 8.647 8.13115 8.974 8.49515L10.089 7.49215C9.54436 6.88664 8.81739 6.47489 8.018 6.31915L7.731 7.79115Z" fill="#F8F8FF"/>
</svg>
