<svg width="24" height="24" viewBox="0 0 24 24" fill="none" xmlns="http://www.w3.org/2000/svg">
<path fill-rule="evenodd" clip-rule="evenodd" d="M8.47 2.46983C8.61063 2.32938 8.80125 2.25049 9 2.25049C9.19875 2.25049 9.38937 2.32938 9.53 2.46983L11.53 4.46983C11.6348 4.57471 11.7061 4.70829 11.735 4.85369C11.7638 4.99909 11.749 5.14979 11.6923 5.28675C11.6356 5.42372 11.5395 5.5408 11.4163 5.62322C11.2931 5.70564 11.1482 5.7497 11 5.74983H9C7.3424 5.74983 5.75268 6.40831 4.58058 7.58041C3.40848 8.75251 2.75 10.3422 2.75 11.9998C2.75 13.6574 3.40848 15.2471 4.58058 16.4192C5.75268 17.5913 7.3424 18.2498 9 18.2498H9.5C9.69891 18.2498 9.88968 18.3288 10.0303 18.4695C10.171 18.6101 10.25 18.8009 10.25 18.9998C10.25 19.1987 10.171 19.3895 10.0303 19.5302C9.88968 19.6708 9.69891 19.7498 9.5 19.7498H9C6.94457 19.7498 4.97333 18.9333 3.51992 17.4799C2.06652 16.0265 1.25 14.0553 1.25 11.9998C1.25 9.9444 2.06652 7.97316 3.51992 6.51975C4.97333 5.06634 6.94457 4.24983 9 4.24983H9.19L8.47 3.52983C8.32955 3.3892 8.25066 3.19858 8.25066 2.99983C8.25066 2.80108 8.32955 2.61045 8.47 2.46983ZM13.75 4.99983C13.75 4.80092 13.829 4.61015 13.9697 4.4695C14.1103 4.32885 14.3011 4.24983 14.5 4.24983H15C17.0554 4.24983 19.0267 5.06634 20.4801 6.51975C21.9335 7.97316 22.75 9.9444 22.75 11.9998C22.75 14.0553 21.9335 16.0265 20.4801 17.4799C19.0267 18.9333 17.0554 19.7498 15 19.7498H14.81L15.53 20.4698C15.6037 20.5385 15.6628 20.6213 15.7038 20.7133C15.7448 20.8053 15.7668 20.9046 15.7686 21.0053C15.7704 21.106 15.7518 21.206 15.7141 21.2994C15.6764 21.3928 15.6203 21.4776 15.549 21.5489C15.4778 21.6201 15.393 21.6762 15.2996 21.714C15.2062 21.7517 15.1062 21.7702 15.0055 21.7684C14.9048 21.7666 14.8055 21.7446 14.7135 21.7036C14.6215 21.6626 14.5387 21.6035 14.47 21.5298L12.47 19.5298C12.3652 19.4249 12.2939 19.2914 12.265 19.146C12.2362 19.0006 12.251 18.8499 12.3077 18.7129C12.3644 18.5759 12.4605 18.4589 12.5837 18.3764C12.7069 18.294 12.8518 18.25 13 18.2498H15C16.6576 18.2498 18.2473 17.5913 19.4194 16.4192C20.5915 15.2471 21.25 13.6574 21.25 11.9998C21.25 10.3422 20.5915 8.75251 19.4194 7.58041C18.2473 6.40831 16.6576 5.74983 15 5.74983H14.5C14.3011 5.74983 14.1103 5.67081 13.9697 5.53016C13.829 5.38951 13.75 5.19874 13.75 4.99983Z" fill="#F8F8FF"/>
</svg>
