<svg width="24" height="24" viewBox="0 0 24 24" fill="none" xmlns="http://www.w3.org/2000/svg">
<path d="M12.0789 2.25001C7.28487 2.25001 3.34487 5.91301 2.96087 10.583H1.99987C1.85118 10.5829 1.70582 10.6271 1.58227 10.7098C1.45871 10.7925 1.36253 10.9101 1.30595 11.0476C1.24936 11.1851 1.23492 11.3363 1.26446 11.482C1.29401 11.6277 1.3662 11.7614 1.47187 11.866L3.15187 13.532C3.29232 13.6712 3.48209 13.7494 3.67987 13.7494C3.87764 13.7494 4.06741 13.6712 4.20787 13.532L5.88787 11.866C5.99353 11.7614 6.06572 11.6277 6.09527 11.482C6.12481 11.3363 6.11037 11.1851 6.05378 11.0476C5.9972 10.9101 5.90102 10.7925 5.77746 10.7098C5.65391 10.6271 5.50855 10.5829 5.35987 10.583H4.46687C4.84687 6.75201 8.10487 3.75001 12.0789 3.75001C13.3891 3.74748 14.678 4.08107 15.8225 4.71888C16.967 5.35669 17.9288 6.27741 18.6159 7.39301C18.6661 7.47958 18.7332 7.55521 18.8132 7.61544C18.8932 7.67566 18.9844 7.71928 19.0815 7.7437C19.1785 7.76812 19.2795 7.77286 19.3785 7.75764C19.4774 7.74242 19.5723 7.70755 19.6576 7.65507C19.7428 7.6026 19.8167 7.53359 19.8749 7.45211C19.933 7.37063 19.9743 7.27833 19.9962 7.18066C20.0181 7.08298 20.0203 6.98191 20.0025 6.88338C19.9848 6.78486 19.9475 6.69089 19.8929 6.60701C19.0717 5.27342 17.9223 4.17267 16.5544 3.40988C15.1866 2.64709 13.645 2.24775 12.0789 2.25001ZM20.8409 10.467C20.7005 10.3284 20.5111 10.2506 20.3139 10.2506C20.1166 10.2506 19.9272 10.3284 19.7869 10.467L18.0999 12.133C17.9939 12.2375 17.9214 12.3712 17.8917 12.517C17.8619 12.6628 17.8762 12.8141 17.9327 12.9518C17.9892 13.0894 18.0853 13.2072 18.209 13.29C18.3326 13.3729 18.4781 13.4171 18.6269 13.417H19.5259C19.1439 17.247 15.8749 20.25 11.8819 20.25C10.5676 20.2534 9.27425 19.9203 8.1251 19.2824C6.97594 18.6446 6.00918 17.7232 5.31687 16.606C5.26512 16.5222 5.19738 16.4493 5.11749 16.3917C5.0376 16.334 4.94713 16.2926 4.85125 16.2699C4.75538 16.2472 4.65597 16.2436 4.5587 16.2593C4.46143 16.275 4.36821 16.3098 4.28437 16.3615C4.11502 16.466 3.99413 16.6335 3.94828 16.8271C3.90243 17.0208 3.93537 17.2247 4.03987 17.394C4.86662 18.729 6.0213 19.8301 7.39397 20.5926C8.76665 21.3551 10.3116 21.7535 11.8819 21.75C16.6899 21.75 20.6469 18.09 21.0319 13.417H21.9999C22.1487 13.4171 22.2941 13.3729 22.4178 13.29C22.5414 13.2072 22.6376 13.0894 22.6941 12.9518C22.7506 12.8141 22.7648 12.6628 22.7351 12.517C22.7053 12.3712 22.6328 12.2375 22.5269 12.133L20.8409 10.467Z" fill="#F8F8FF"/>
</svg>
